Coordinates
version=1
nRows=6
nColumns=36
inDegrees=yes

Units are S.I. units (second, meters, Newtons, ...)
If the header above contains a line with 'inDegrees', this indicates whether rotational values are in degrees (yes) or radians (no).

endheader
time	pelvis_tilt	pelvis_list	pelvis_rotation	pelvis_tx	pelvis_ty	pelvis_tz	hip_flexion_r	hip_adduction_r	hip_rotation_r	knee_angle_r	knee_angle_r_beta	ankle_angle_r	subtalar_angle_r	mtp_angle_r	hip_flexion_l	hip_adduction_l	hip_rotation_l	knee_angle_l	knee_angle_l_beta	ankle_angle_l	subtalar_angle_l	mtp_angle_l	lumbar_extension	lumbar_bending	lumbar_rotation	arm_flex_r	arm_add_r	arm_rot_r	elbow_flex_r	pro_sup_r	arm_flex_l	arm_add_l	arm_rot_l	elbow_flex_l	pro_sup_l
      2.95000000	    -13.97015070	      0.23424941	      1.84755167	     -0.23073200	      1.23845487	     -0.09568044	     33.20013763	     -8.74453915	    -11.71251744	     39.99047427	      0.69796545	    -26.28769977	    -23.84398199	     -7.49999987	     33.96168416	     -5.00170545	     -2.59424234	     53.83178590	      0.93954191	    -19.59151104	     -4.02407591	     -7.49999987	     -7.68386708	      1.02082717	      0.71438770	     94.52676721	    -39.90764595	     25.06618708	     77.07003911	     75.39169938	     99.80989995	    -32.58124005	     24.80751062	     64.50168793	     67.29066755
      2.95416670	    -14.13947066	      0.37285679	      1.78720271	     -0.22452482	      1.23601707	     -0.09536678	     33.37078651	     -8.70409078	    -11.89807464	     38.38729856	      0.66998475	    -25.94865679	    -21.75938836	     -7.49999987	     34.61429361	     -4.98186920	     -2.49509660	     52.75119519	      0.92068204	    -20.00264426	     -2.71473276	     -7.49999987	     -7.62350082	      0.77845574	      0.80721117	     94.04397215	    -40.22116342	     25.18147987	     76.85254885	     75.41042923	     99.22455784	    -32.88163172	     24.99283387	     64.47575888	     67.21464917
      2.95833330	    -14.39529090	      0.39978903	      1.95459296	     -0.21726998	      1.23123058	     -0.09344833	     33.54666329	     -8.71542477	    -12.63558573	     37.04326186	      0.64652689	    -26.28267938	    -20.71397719	     -7.49999987	     34.91601011	     -5.03971605	     -2.49132555	     50.73615103	      0.88551289	    -20.63743049	     -2.40424303	     -7.49999987	     -7.35533336	      0.71453794	      0.73440915	     93.34261603	    -40.73969627	     25.34890578	     77.00317206	     75.63473787	     98.40406103	    -33.44001733	     25.18125607	     64.31843111	     67.23245454
      2.96250000	    -14.43393504	      0.55327123	      2.04362396	     -0.21350215	      1.23137479	     -0.09222792	     33.68293518	     -8.79426046	    -13.46196064	     35.67975520	      0.62272920	    -25.86815953	    -19.47037398	     -7.49999987	     34.97877532	     -4.88234199	     -2.62503084	     48.94384338	      0.85423122	    -21.10613712	     -2.48153238	     -7.49999987	     -7.49185463	      0.55942127	      0.57394524	     91.88730067	    -41.07555173	     24.66626025	     78.18749926	     76.15562885	     97.46741918	    -34.21664189	     25.05515044	     64.81912482	     66.97596876
      2.96666670	    -14.55948160	      0.55624074	      1.85618897	     -0.20714044	      1.22416688	     -0.09338533	     34.28863595	     -8.74973143	    -13.64108365	     34.88394236	      0.60883965	    -25.07230064	    -18.31398302	     -7.49999987	     35.36855749	     -4.90126497	     -2.66986802	     47.82345908	      0.83467682	    -20.69639442	     -1.47715548	     -7.49999987	     -7.42554584	      0.68437982	      0.64267767	     90.95696339	    -41.54950503	     24.51935054	     78.64607377	     76.15984724	     96.46504859	    -35.10923954	     24.93311938	     64.95768363	     66.77606396
      2.97083330	    -15.21531983	      0.61731696	      1.86467785	     -0.19840796	      1.21560342	     -0.09406004	     35.02698439	     -8.86263418	    -13.83751616	     33.85363378	      0.59085737	    -23.77788134	    -16.50884736	     -7.49999987	     36.22482334	     -4.85233461	     -2.65178781	     46.61089303	      0.81351355	    -20.80405802	     -0.99026503	     -7.49999987	     -6.56639520	      0.72565546	      0.71505535	     89.86293184	    -42.29035689	     24.14505489	     79.41822825	     76.18446285	     95.10057030	    -35.81510142	     24.59591505	     65.54815449	     66.48054350
